<?xml version="1.0" encoding="utf-8"?>
<!-- Generator: Adobe Illustrator 19.2.0, SVG Export Plug-In . SVG Version: 6.00 Build 0)  -->
<svg version="1.1" id="Warstwa_1" xmlns="http://www.w3.org/2000/svg" xmlns:xlink="http://www.w3.org/1999/xlink" x="0px" y="0px"
	 viewBox="0 0 512 512" style="enable-background:new 0 0 512 512;" xml:space="preserve">
<style type="text/css">
	.st0{fill:#FFFC2A;stroke:#A9ADAA;stroke-miterlimit:10;}
</style>
<g id="Page-1">
	<g id="_x30_47---Delete">
		<path id="Shape" class="st0" d="M71.9,488.2c2.1,14.2,14.6,24.5,28.9,23.8h308.9c14.3,0.7,26.8-9.6,28.9-23.8l28.8-361
			c21.6-4.1,36.5-24,34.4-45.9s-20.4-38.7-42.4-38.6H370l-5.9-7.4C346.3,12.9,319.4-0.1,290.9,0h-71.4
			c-28.4-0.1-55.4,12.9-73.1,35.2l-5.9,7.4H51.1c-21.9,0-40.3,16.7-42.4,38.6s12.9,41.8,34.4,45.9L71.9,488.2z M421.6,486.8
			c-0.4,4.5-5.7,8.1-11.9,8.1H100.8c-6.2,0-11.5-3.6-11.9-8.1L60.3,128h390L421.6,486.8z M219.6,17.1H291c21.7,0,42.5,9.3,56.9,25.6
			H162.7C177.1,26.4,197.8,17,219.6,17.1z M25.5,85.3c0-14.1,11.4-25.6,25.5-25.6h408.4c14.1,0,25.5,11.5,25.5,25.6
			s-11.4,25.6-25.5,25.6H51.1C37,110.9,25.6,99.5,25.5,85.3z"/>
		<path id="Shape_1_" class="st0" d="M229.7,435.2c4.7,0,8.5-3.8,8.5-8.5V196.3c0-9.4,7.6-17.1,17-17.1c9.4,0,17,7.6,17,17.1
			c0,4.7,3.8,8.5,8.5,8.5s8.5-3.8,8.5-8.5c0-18.9-15.2-34.1-34-34.1s-34,15.3-34,34.1v230.4C221.2,431.4,225,435.2,229.7,435.2z"/>
		<path id="Shape_2_" class="st0" d="M127.6,435.2c4.7,0,8.5-3.8,8.5-8.5V196.3c0-9.4,7.6-17.1,17-17.1s17,7.6,17,17.1
			c0,4.7,3.8,8.5,8.5,8.5s8.5-3.8,8.5-8.5c0-18.9-15.2-34.1-34-34.1s-34,15.3-34,34.1v230.4C119.1,431.4,122.9,435.2,127.6,435.2z"
			/>
		<path id="Shape_3_" class="st0" d="M331.8,435.2c4.7,0,8.5-3.8,8.5-8.5V196.3c0-9.4,7.6-17.1,17-17.1s17,7.6,17,17.1
			c0,4.7,3.8,8.5,8.5,8.5s8.5-3.8,8.5-8.5c0-18.9-15.2-34.1-34-34.1s-34,15.3-34,34.1v230.4C323.3,431.4,327.1,435.2,331.8,435.2z"
			/>
	</g>
</g>
</svg>
